<?xml version="1.0" encoding="UTF-8" standalone="no"?>
<!-- Created with Inkscape (http://www.inkscape.org/) -->

<svg
   xmlns:dc="http://purl.org/dc/elements/1.1/"
   xmlns:cc="http://creativecommons.org/ns#"
   xmlns:rdf="http://www.w3.org/1999/02/22-rdf-syntax-ns#"
   xmlns:svg="http://www.w3.org/2000/svg"
   xmlns="http://www.w3.org/2000/svg"
   xmlns:sodipodi="http://sodipodi.sourceforge.net/DTD/sodipodi-0.dtd"
   xmlns:inkscape="http://www.inkscape.org/namespaces/inkscape"
   width="210mm"
   height="297mm"
   viewBox="0 0 210 297"
   version="1.1"
   id="svg979"
   inkscape:version="0.92.1 r15371"
   sodipodi:docname="builder.svg">
  <defs
     id="defs973" />
  <sodipodi:namedview
     id="base"
     pagecolor="#ffffff"
     bordercolor="#666666"
     borderopacity="1.0"
     inkscape:pageopacity="0.0"
     inkscape:pageshadow="2"
     inkscape:zoom="1.979899"
     inkscape:cx="87.800673"
     inkscape:cy="942.70756"
     inkscape:document-units="mm"
     inkscape:current-layer="layer1"
     showgrid="false"
     inkscape:window-width="1920"
     inkscape:window-height="989"
     inkscape:window-x="0"
     inkscape:window-y="31"
     inkscape:window-maximized="1"
     showguides="true"
     inkscape:guide-bbox="true">
    <sodipodi:guide
       position="-43.467261,230.37649"
       orientation="0,1"
       id="guide1736"
       inkscape:locked="false" />
  </sodipodi:namedview>
  <metadata
     id="metadata976">
    <rdf:RDF>
      <cc:Work
         rdf:about="">
        <dc:format>image/svg+xml</dc:format>
        <dc:type
           rdf:resource="http://purl.org/dc/dcmitype/StillImage" />
        <dc:title />
      </cc:Work>
    </rdf:RDF>
  </metadata>
  <g
     inkscape:label="Layer 1"
     inkscape:groupmode="layer"
     id="layer1"
     style="display:inline">
    <rect
       style="fill:#ffffff;fill-opacity:1;stroke:#a05a2c;stroke-width:1.32291675;stroke-miterlimit:4;stroke-dasharray:none;stroke-opacity:1"
       id="rect3075-3"
       width="39.6875"
       height="39.6875"
       x="14.862598"
       y="44.62355"
       rx="2.6458333"
       ry="2.6458335"
       inkscape:export-filename="/home/cwc/https/tritechsc.org/img/greenchoices.png"
       inkscape:export-xdpi="90"
       inkscape:export-ydpi="90" />
    <flowRoot
       xml:space="preserve"
       id="flowRoot3112-67"
       style="font-style:normal;font-weight:normal;line-height:0.01%;font-family:sans-serif;letter-spacing:0px;word-spacing:0px;fill:#008000;fill-opacity:1;stroke:none;stroke-width:0.25;stroke-miterlimit:4;stroke-dasharray:none;stroke-opacity:1;"
       transform="matrix(0.26458332,0,0,0.26458332,-66.904419,-48.085178)"
       inkscape:export-filename="/home/cwc/https/tritechsc.org/img/greenchoices.png"
       inkscape:export-xdpi="90"
       inkscape:export-ydpi="90"><flowRegion
         id="flowRegion3114-5"
         style="font-family:sans-serif;fill:#008000;fill-opacity:1;"><rect
           style="font-family:sans-serif;fill:#008000;fill-opacity:1;stroke:none;stroke-width:0.25;stroke-miterlimit:4;stroke-dasharray:none;stroke-opacity:1;"
           id="rect3116-3"
           width="169.28572"
           height="169.28572"
           x="280"
           y="343.07648" /></flowRegion><flowPara
         id="flowPara3118-5"
         style="font-style:normal;font-variant:normal;font-weight:normal;font-stretch:normal;font-size:40px;line-height:1.25;font-family:Karla;-inkscape-font-specification:Karla;text-align:center;text-anchor:middle;fill:#008000;fill-opacity:1;stroke:none;stroke-width:0.25;stroke-miterlimit:4;stroke-dasharray:none;stroke-opacity:1;">Green</flowPara><flowPara
         id="flowPara3122-6"
         style="font-style:normal;font-variant:normal;font-weight:normal;font-stretch:normal;font-size:40px;line-height:1.25;font-family:Karla;-inkscape-font-specification:Karla;text-align:center;text-anchor:middle;fill:#008000;fill-opacity:1;stroke:none;stroke-width:0.25;stroke-miterlimit:4;stroke-dasharray:none;stroke-opacity:1;"> </flowPara></flowRoot>    <flowRoot
       xml:space="preserve"
       id="flowRoot3224-0"
       style="font-style:normal;font-weight:normal;line-height:0.01%;font-family:sans-serif;text-align:center;letter-spacing:0px;word-spacing:0px;text-anchor:middle;fill:#d40000;fill-opacity:1;stroke:none"
       transform="matrix(0.26458332,0,0,0.26458332,-83.38826,-29.575908)"
       inkscape:export-filename="/home/cwc/https/tritechsc.org/img/greenchoices.png"
       inkscape:export-xdpi="90"
       inkscape:export-ydpi="90"><flowRegion
         id="flowRegion3226-9"
         style="font-family:sans-serif"><rect
           id="rect3228-3"
           width="278.57141"
           height="238.57143"
           x="381.42856"
           y="387.36218"
           style="font-family:sans-serif;text-align:center;text-anchor:middle;fill:#d40000" /></flowRegion><flowPara
         id="flowPara3232-6"
         style="font-style:normal;font-variant:normal;font-weight:normal;font-stretch:normal;font-size:9px;line-height:1.25;font-family:Karla;-inkscape-font-specification:Karla;text-align:start;text-anchor:start;fill:#d40000">WSU </flowPara><flowPara
         id="flowPara3234-0"
         style="font-style:normal;font-variant:normal;font-weight:normal;font-stretch:normal;font-size:9px;line-height:1.25;font-family:Karla;-inkscape-font-specification:Karla;text-align:start;text-anchor:start;fill:#d40000">IMAGINE TOMORROW</flowPara><flowPara
         id="flowPara3236-6"
         style="font-style:normal;font-variant:normal;font-weight:normal;font-stretch:normal;font-size:9px;line-height:1.25;font-family:Karla;-inkscape-font-specification:Karla;text-align:start;text-anchor:start;fill:#d40000">PROGECT</flowPara></flowRoot>    <flowRoot
       xml:space="preserve"
       id="flowRoot3112-6-1-2"
       style="font-style:normal;font-weight:normal;line-height:0.01%;font-family:sans-serif;letter-spacing:0px;word-spacing:0px;fill:#a05a2c;fill-opacity:1;stroke:none;stroke-width:0.25;stroke-miterlimit:4;stroke-dasharray:none;stroke-opacity:1"
       transform="matrix(0.26458332,0,0,0.26458332,-62.05295,-30.853435)"
       inkscape:export-filename="/home/cwc/https/tritechsc.org/img/greenchoices.png"
       inkscape:export-xdpi="90"
       inkscape:export-ydpi="90"><flowRegion
         id="flowRegion3114-3-2-6"
         style="font-family:sans-serif;fill:#a05a2c"><rect
           style="font-family:sans-serif;fill:#a05a2c;fill-opacity:1;stroke:none;stroke-width:0.25;stroke-miterlimit:4;stroke-dasharray:none;stroke-opacity:1"
           id="rect3116-9-9-1"
           width="169.28572"
           height="169.28572"
           x="280"
           y="343.07648" /></flowRegion><flowPara
         id="flowPara3122-8-9-7"
         style="font-style:normal;font-variant:normal;font-weight:normal;font-stretch:normal;font-size:24.00000191px;line-height:1.25;font-family:Karla;-inkscape-font-specification:Karla;text-align:center;text-anchor:middle;fill:#a05a2c;fill-opacity:1;stroke:none;stroke-width:0.25;stroke-miterlimit:4;stroke-dasharray:none;stroke-opacity:1">App-Solutley</flowPara></flowRoot>    <path
       style="fill:#008000;fill-opacity:1;stroke-width:0.0582467"
       d="m 48.596231,81.749004 v -0.785473 l -1.745041,-0.01543 -1.745038,-0.01543 0.838746,-1.368804 0.838745,-1.368796 -0.578992,-0.01657 c -0.318453,-0.0091 -0.579002,-0.02737 -0.579002,-0.04058 0,-0.01321 0.406957,-0.687203 0.904343,-1.49781 l 0.904343,-1.473846 -0.442382,-0.01709 c -0.243313,-0.0094 -0.43402,-0.0383 -0.423806,-0.06427 0.0335,-0.08513 2.456383,-4.023976 2.466497,-4.009764 0.07603,0.106781 2.415675,4.013733 2.415675,4.033914 0,0.01543 -0.186282,0.02807 -0.413958,0.02807 -0.307461,0 -0.406658,0.01873 -0.385588,0.07282 0.01561,0.04008 0.411565,0.710121 0.87993,1.489066 0.468361,0.778939 0.851564,1.427664 0.851564,1.441604 0,0.01397 -0.251805,0.02533 -0.559579,0.02533 -0.434298,0 -0.553086,0.01689 -0.530607,0.07548 0.01593,0.04153 0.385219,0.66403 0.820631,1.383359 l 0.791671,1.307878 -1.688107,0.01543 -1.688098,0.01543 v 0.785441 0.785455 h -0.465972 -0.465975 z"
       id="path942"
       inkscape:connector-curvature="0"
       inkscape:export-filename="/home/cwc/https/tritechsc.org/img/greenchoices.png"
       inkscape:export-xdpi="90"
       inkscape:export-ydpi="90" />
    <rect
       style="fill:#ffff00;fill-opacity:0;fill-rule:evenodd;stroke:#008000;stroke-width:1.32291663;stroke-miterlimit:4;stroke-dasharray:none;stroke-opacity:1"
       id="rect3075-3-3-2"
       width="39.6875"
       height="39.6875"
       x="-110.98266"
       y="82.049492"
       rx="2.6458333"
       ry="2.6458333"
       inkscape:export-filename="/home/cwc/http/tritechsc.org/img/builder.png"
       inkscape:export-xdpi="90"
       inkscape:export-ydpi="90" />
    <rect
       style="fill:#ffffff;fill-opacity:1;stroke:#ff0000;stroke-width:1.32291687;stroke-miterlimit:4;stroke-dasharray:none;stroke-opacity:1"
       id="rect3075-3-3"
       width="39.6875"
       height="39.6875"
       x="59.809685"
       y="44.62355"
       rx="2.6458335"
       ry="2.6458337"
       inkscape:export-filename="/home/cwc/http/tritechsc.org/img/greengrocer.png"
       inkscape:export-xdpi="90"
       inkscape:export-ydpi="90" />
    <flowRoot
       xml:space="preserve"
       id="flowRoot3112"
       style="font-style:normal;font-weight:normal;line-height:0.01%;font-family:sans-serif;letter-spacing:0px;word-spacing:0px;fill:#008f00;fill-opacity:1;stroke:none;stroke-width:0.25;stroke-miterlimit:4;stroke-dasharray:none;stroke-opacity:1"
       transform="matrix(0.26458333,0,0,0.26458334,-25.599427,-47.550646)"
       inkscape:export-filename="/home/cwc/http/tritechsc.org/img/greengrocer.png"
       inkscape:export-xdpi="90"
       inkscape:export-ydpi="90"><flowRegion
         id="flowRegion3114"
         style="font-family:sans-serif"><rect
           style="font-family:sans-serif;fill:#008f00;fill-opacity:1;stroke:none;stroke-width:0.25;stroke-miterlimit:4;stroke-dasharray:none;stroke-opacity:1"
           id="rect3116"
           width="169.28572"
           height="169.28572"
           x="280"
           y="343.07648" /></flowRegion><flowPara
         id="flowPara3118"
         style="font-style:normal;font-variant:normal;font-weight:normal;font-stretch:normal;font-size:40px;line-height:1.25;font-family:Karla;-inkscape-font-specification:Karla;text-align:center;text-anchor:middle;fill:#008f00;fill-opacity:1;stroke:none;stroke-width:0.25;stroke-miterlimit:4;stroke-dasharray:none;stroke-opacity:1">The</flowPara><flowPara
         id="flowPara3122"
         style="font-style:normal;font-variant:normal;font-weight:normal;font-stretch:normal;font-size:40px;line-height:1.25;font-family:Karla;-inkscape-font-specification:Karla;text-align:center;text-anchor:middle;fill:#008f00;fill-opacity:1;stroke:none;stroke-width:0.25;stroke-miterlimit:4;stroke-dasharray:none;stroke-opacity:1"> </flowPara></flowRoot>    <flowRoot
       xml:space="preserve"
       id="flowRoot3112-6"
       style="font-style:normal;font-weight:normal;line-height:0.01%;font-family:sans-serif;letter-spacing:0px;word-spacing:0px;fill:#008f00;fill-opacity:1;stroke:none;stroke-width:0.25;stroke-miterlimit:4;stroke-dasharray:none;stroke-opacity:1"
       transform="matrix(0.26458333,0,0,0.26458334,-20.25592,-40.685075)"
       inkscape:export-filename="/home/cwc/http/tritechsc.org/img/greengrocer.png"
       inkscape:export-xdpi="90"
       inkscape:export-ydpi="90"><flowRegion
         id="flowRegion3114-3"
         style="font-family:sans-serif"><rect
           style="font-family:sans-serif;fill:#008f00;fill-opacity:1;stroke:none;stroke-width:0.25;stroke-miterlimit:4;stroke-dasharray:none;stroke-opacity:1"
           id="rect3116-9"
           width="169.28572"
           height="169.28572"
           x="280"
           y="343.07648" /></flowRegion><flowPara
         id="flowPara3118-4"
         style="font-style:normal;font-variant:normal;font-weight:normal;font-stretch:normal;font-size:40px;line-height:1.25;font-family:Karla;-inkscape-font-specification:Karla;text-align:center;text-anchor:middle;fill:#008f00;fill-opacity:1;stroke:none;stroke-width:0.25;stroke-miterlimit:4;stroke-dasharray:none;stroke-opacity:1">Green</flowPara><flowPara
         id="flowPara3122-8"
         style="font-style:normal;font-variant:normal;font-weight:normal;font-stretch:normal;font-size:40px;line-height:1.25;font-family:Karla;-inkscape-font-specification:Karla;text-align:center;text-anchor:middle;fill:#008f00;fill-opacity:1;stroke:none;stroke-width:0.25;stroke-miterlimit:4;stroke-dasharray:none;stroke-opacity:1"> </flowPara></flowRoot>    <flowRoot
       xml:space="preserve"
       id="flowRoot3224"
       style="font-style:normal;font-weight:normal;line-height:0.01%;font-family:sans-serif;text-align:center;letter-spacing:0px;word-spacing:0px;text-anchor:middle;fill:#d40000;fill-opacity:1;stroke:none"
       transform="matrix(0.26458333,0,0,0.26458334,-38.293384,-29.575916)"
       inkscape:export-filename="/home/cwc/http/tritechsc.org/img/greengrocer.png"
       inkscape:export-xdpi="90"
       inkscape:export-ydpi="90"><flowRegion
         id="flowRegion3226"
         style="font-family:sans-serif"><rect
           id="rect3228"
           width="278.57141"
           height="238.57143"
           x="381.42856"
           y="387.36218"
           style="font-family:sans-serif;text-align:center;text-anchor:middle;fill:#d40000" /></flowRegion><flowPara
         id="flowPara3232"
         style="font-style:normal;font-variant:normal;font-weight:normal;font-stretch:normal;font-size:9px;line-height:1.25;font-family:Karla;-inkscape-font-specification:Karla;text-align:start;text-anchor:start;fill:#d40000">WSU </flowPara><flowPara
         id="flowPara3234"
         style="font-style:normal;font-variant:normal;font-weight:normal;font-stretch:normal;font-size:9px;line-height:1.25;font-family:Karla;-inkscape-font-specification:Karla;text-align:start;text-anchor:start;fill:#d40000">IMAGINE TOMORROW</flowPara><flowPara
         id="flowPara3236"
         style="font-style:normal;font-variant:normal;font-weight:normal;font-stretch:normal;font-size:9px;line-height:1.25;font-family:Karla;-inkscape-font-specification:Karla;text-align:start;text-anchor:start;fill:#d40000">PROGECT</flowPara></flowRoot>    <flowRoot
       xml:space="preserve"
       id="flowRoot3112-6-1"
       style="font-style:normal;font-weight:normal;line-height:0.01%;font-family:sans-serif;letter-spacing:0px;word-spacing:0px;fill:#008f00;fill-opacity:1;stroke:none;stroke-width:0.25;stroke-miterlimit:4;stroke-dasharray:none;stroke-opacity:1"
       transform="matrix(0.26458333,0,0,0.26458334,-18.354226,-33.793407)"
       inkscape:export-filename="/home/cwc/http/tritechsc.org/img/greengrocer.png"
       inkscape:export-xdpi="90"
       inkscape:export-ydpi="90"><flowRegion
         id="flowRegion3114-3-2"
         style="font-family:sans-serif"><rect
           style="font-family:sans-serif;fill:#008f00;fill-opacity:1;stroke:none;stroke-width:0.25;stroke-miterlimit:4;stroke-dasharray:none;stroke-opacity:1"
           id="rect3116-9-9"
           width="169.28572"
           height="169.28572"
           x="280"
           y="343.07648" /></flowRegion><flowPara
         id="flowPara3118-4-3"
         style="font-style:normal;font-variant:normal;font-weight:normal;font-stretch:normal;font-size:40px;line-height:1.25;font-family:Karla;-inkscape-font-specification:Karla;text-align:center;text-anchor:middle;fill:#008f00;fill-opacity:1;stroke:none;stroke-width:0.25;stroke-miterlimit:4;stroke-dasharray:none;stroke-opacity:1">Grocer</flowPara><flowPara
         id="flowPara3122-8-9"
         style="font-style:normal;font-variant:normal;font-weight:normal;font-stretch:normal;font-size:40px;line-height:1.25;font-family:Karla;-inkscape-font-specification:Karla;text-align:center;text-anchor:middle;fill:#008f00;fill-opacity:1;stroke:none;stroke-width:0.25;stroke-miterlimit:4;stroke-dasharray:none;stroke-opacity:1"> </flowPara></flowRoot>    <g
       id="g6002"
       transform="matrix(0.03860706,0.01034473,-0.01034473,0.03860707,129.41168,74.916474)"
       inkscape:export-xdpi="90"
       inkscape:export-ydpi="90">
      <path
         inkscape:connector-curvature="0"
         id="path4149"
         d="m -919.51653,198.59486 c -5.49005,-5.65682 -7.54494,-14.32666 -9.28003,-21.92457 -1.08521,-7.53917 0.24398,-15.29583 5.06299,-21.28153 -3.31086,-9.49806 14.4913,-2.10361 11.50472,-11.70183 -4.57684,-9.45119 12.18256,-2.1487 12.90084,-10.7191 -6.24565,-8.96516 10.59842,-6.44495 12.50881,-13.71342 -0.97067,-9.20433 -13.53089,-8.99043 -20.28873,-10.42661 3.15199,-5.87209 12.7435,-7.5618 13.07436,-15.466602 -0.43629,-10.415555 -12.36007,-8.030734 -18.28364,-11.818109 -4.12422,-3.383692 -12.46313,9.673203 -13.4333,-1.494235 -6.87469,3.158298 -9.44443,11.019781 -13.6544,16.744985 -3.78657,-7.263532 -6.8355,3.974761 -8.85001,7.118341 -4.79748,4.35264 -0.55675,17.58121 -8.34445,16.7442 -2.95683,6.52489 0.01,13.94946 1.37665,20.55276 -6.05536,4.93667 2.44184,14.96508 3.52217,21.5484 1.91122,2.76024 4.96117,13.91784 -0.67325,6.87698 -9.88425,-12.37974 -14.75187,-27.64625 -21.06075,-41.92945 -1.14542,-7.28224 -9.61856,-3.65752 -12.0413,-6.73442 0.49867,-6.80674 -1.49269,-19.40601 -10.8525,-16.97592 -7.53935,3.65593 -2.18176,-13.873526 -10.82565,-14.7402 -6.3045,-3.320483 -6.1566,9.895155 -11.9603,2.822475 -4.9087,-4.761022 -13.7351,-4.240226 -16.9466,2.195053 -2.9901,4.828289 -1.6648,10.965482 1.6181,15.267692 -5.6334,3.98697 -4.7527,12.30349 2.214,14.50549 4.3271,2.31685 16.5732,3.65588 6.4599,8.13473 -3.1101,8.50172 8.2952,11.27815 14.505,12.10247 4.4259,0.0843 13.11113,1.5974 6.5057,6.21406 6.99271,5.93457 16.84145,6.12283 24.89047,10.06446 8.90981,3.96873 17.78703,8.95782 24.48473,16.11255 -6.49677,1.27593 -15.99636,-5.86774 -23.77165,-7.12912 -5.16041,-3.59189 -5.43284,5.43195 -10.66055,0.88441 -4.67479,-0.79897 -17.1981,-4.88733 -16.1312,3.01517 -7.3895,1.83224 -15.1586,3.29363 -21.8209,7.4331 -3.8521,1.8172 -6.606,3.87379 -2.1083,6.41451 -5.7903,4.04387 -14.1446,7.03876 -16.6374,14.03752 9.269,0.419 1.919,7.5216 0.05,11.91631 6.5435,4.30016 1.0483,17.1126 11.0752,18.85657 8.0572,2.25936 11.5004,-7.35447 16.1242,-11.92881 4.5868,-0.0745 0.9433,11.58326 5.2316,15.00662 4.1501,9.81563 12.5193,1.12219 13.4531,-5.6615 0.66145,-8.29264 9.21433,2.06406 11.07356,-5.90059 1.57908,-4.59232 -0.0171,-13.59469 7.69138,-8.90403 8.13005,0.11791 1.43673,-15.2053 11.41496,-12.09518 7.37188,-6.50807 18.32676,-5.84649 27.13174,-3.13671 5.79316,0.20793 12.60991,7.48504 16.47155,6.39192 2.42628,-2.42628 4.85256,-4.85256 7.27883,-7.27884 z"
         style="fill:#5aa02c" />
      <path
         sodipodi:nodetypes="cccccccccccccccccccc"
         inkscape:connector-curvature="0"
         id="path4149-3"
         d="m -721.95928,411.29082 c 4.53404,-9.42389 -3.60078,-21.05395 -6.42027,-30.53587 -16.73523,-37.78239 -36.20694,-74.42091 -58.20958,-109.39788 -2.2626,-4.27845 -5.66032,-14.17692 -9.56959,-14.63178 -14.74418,-12.31231 -43.16509,25.09751 -44.4351,21.64399 7.17362,-15.01726 20.58591,-25.34319 33.50851,-35.12856 2.6073,-11.25981 -10.31081,-21.42521 -15.16019,-31.35767 -9.79572,-13.36059 -18.78222,-27.48914 -29.9886,-39.71665 -13.12005,-6.78172 -28.43478,-0.40034 -40.85497,5.17952 -34.59344,15.90789 -63.574,48.09353 -68.70674,86.6581 -3.25686,12.05348 6.58024,19.94963 16.00257,25.07102 l 13.79435,7.42669 c 7.68141,-8.61223 12.5523,-19.18208 24.41938,-21.77277 3.56281,7.53969 -19.7269,28.10418 -12.98705,32.62213 13.98148,12.7635 38.05543,29.67006 56.16784,35.63337 12.53314,-1.15058 15.39591,-19.59325 28.54773,-21.8901 6.11044,3.41994 -6.73257,14.62788 -7.42496,21.75835 -7.24371,13.92712 15.07005,17.66122 22.5761,24.91695 27.11796,15.32153 54.35638,31.00387 83.69988,41.69328 4.67983,0.93284 10.37686,3.86531 15.04069,1.82788 z"
         style="fill:#ff6600" />
    </g>
    <flowRoot
       xml:space="preserve"
       id="flowRoot3112-6-2"
       style="font-style:normal;font-weight:normal;line-height:0.01%;font-family:sans-serif;letter-spacing:0px;word-spacing:0px;fill:#008000;fill-opacity:1;stroke:none;stroke-width:0.25;stroke-miterlimit:4;stroke-dasharray:none;stroke-opacity:1"
       transform="matrix(0.26458332,0,0,0.26458332,-61.759593,-40.685068)"
       inkscape:export-filename="/home/cwc/https/tritechsc.org/img/greenchoices.png"
       inkscape:export-xdpi="90"
       inkscape:export-ydpi="90"><flowRegion
         id="flowRegion3114-3-9"
         style="font-family:sans-serif;fill:#008000;fill-opacity:1"><rect
           style="font-family:sans-serif;fill:#008000;fill-opacity:1;stroke:none;stroke-width:0.25;stroke-miterlimit:4;stroke-dasharray:none;stroke-opacity:1"
           id="rect3116-9-1"
           width="169.28572"
           height="169.28572"
           x="280"
           y="343.07648" /></flowRegion><flowPara
         id="flowPara3122-8-7"
         style="font-style:normal;font-variant:normal;font-weight:normal;font-stretch:normal;font-size:40px;line-height:1.25;font-family:Karla;-inkscape-font-specification:Karla;text-align:center;text-anchor:middle;fill:#008000;fill-opacity:1;stroke:none;stroke-width:0.25;stroke-miterlimit:4;stroke-dasharray:none;stroke-opacity:1">Choices</flowPara></flowRoot>    <path
       style="display:inline;fill:#008000;fill-opacity:1;stroke-width:0.0582467"
       d="m -50.789342,32.536561 v -0.785474 l -1.745042,-0.01543 -1.745038,-0.01543 0.838747,-1.368804 0.838744,-1.368796 -0.578992,-0.01657 c -0.318452,-0.0091 -0.579002,-0.02737 -0.579002,-0.04058 0,-0.01321 0.406958,-0.687203 0.904343,-1.49781 l 0.904343,-1.473846 -0.442382,-0.01709 c -0.243313,-0.0094 -0.43402,-0.0383 -0.423806,-0.06427 0.0335,-0.08513 2.456384,-4.023976 2.466498,-4.009764 0.07603,0.106781 2.415674,4.013733 2.415674,4.033914 0,0.01543 -0.186282,0.02807 -0.413957,0.02807 -0.307462,0 -0.406659,0.01873 -0.385589,0.07282 0.01561,0.04008 0.411565,0.710121 0.879931,1.489066 0.46836,0.778939 0.851563,1.427664 0.851563,1.441604 0,0.01397 -0.251804,0.02533 -0.559579,0.02533 -0.434297,0 -0.553086,0.01689 -0.530607,0.07548 0.01593,0.04153 0.385219,0.66403 0.820632,1.383359 l 0.79167,1.307878 -1.688107,0.01543 -1.688098,0.01543 v 0.785442 0.785455 h -0.465972 -0.465974 z"
       id="path942-3"
       inkscape:connector-curvature="0"
       inkscape:export-filename="/home/cwc/http/greenchoices/img/2tree.png"
       inkscape:export-xdpi="90"
       inkscape:export-ydpi="90" />
    <path
       style="display:inline;fill:#008000;fill-opacity:1;stroke-width:0.0582467"
       d="m -42.762647,46.167281 v -0.785475 l -1.745042,-0.01543 -1.745038,-0.01543 0.838747,-1.368804 0.838744,-1.368796 -0.578992,-0.01657 c -0.318452,-0.0091 -0.579002,-0.02737 -0.579002,-0.04058 0,-0.01321 0.406958,-0.687203 0.904343,-1.49781 l 0.904343,-1.473846 -0.442382,-0.01709 c -0.243313,-0.0094 -0.43402,-0.0383 -0.423806,-0.06427 0.0335,-0.08513 2.456384,-4.023976 2.466498,-4.009764 0.07603,0.106781 2.415674,4.013733 2.415674,4.033914 0,0.01543 -0.186282,0.02807 -0.413957,0.02807 -0.307462,0 -0.406659,0.01873 -0.385589,0.07282 0.01561,0.04008 0.411565,0.710121 0.879931,1.489066 0.46836,0.778939 0.851563,1.427664 0.851563,1.441604 0,0.01397 -0.251804,0.02533 -0.559579,0.02533 -0.434297,0 -0.553086,0.01689 -0.530607,0.07548 0.01593,0.04153 0.385219,0.66403 0.820632,1.383359 l 0.79167,1.307878 -1.688107,0.01543 -1.688098,0.01543 v 0.785443 0.785455 h -0.465972 -0.465974 z"
       id="path942-3-3"
       inkscape:connector-curvature="0"
       inkscape:export-filename="/home/cwc/http/greenchoices/img/3tree.png"
       inkscape:export-xdpi="90"
       inkscape:export-ydpi="90" />
    <path
       style="display:inline;fill:#008000;fill-opacity:1;stroke-width:0.0582467"
       d="m -50.679413,18.638551 v -0.785475 l -1.745042,-0.01543 -1.745038,-0.01543 0.838747,-1.368804 0.838744,-1.368796 -0.578992,-0.01657 c -0.318452,-0.0091 -0.579002,-0.02737 -0.579002,-0.04058 0,-0.01321 0.406958,-0.687203 0.904343,-1.49781 l 0.904343,-1.473846 -0.442382,-0.01709 c -0.243313,-0.0094 -0.43402,-0.0383 -0.423806,-0.06427 0.0335,-0.08513 2.456384,-4.0239759 2.466498,-4.0097639 0.07603,0.106781 2.415674,4.0137329 2.415674,4.0339139 0,0.01543 -0.186282,0.02807 -0.413957,0.02807 -0.307462,0 -0.406659,0.01873 -0.385589,0.07282 0.01561,0.04008 0.411565,0.710121 0.879931,1.489066 0.46836,0.778939 0.851563,1.427664 0.851563,1.441604 0,0.01397 -0.251804,0.02533 -0.559579,0.02533 -0.434297,0 -0.553086,0.01689 -0.530607,0.07548 0.01593,0.04153 0.385219,0.66403 0.820632,1.383359 l 0.79167,1.307878 -1.688107,0.01543 -1.688098,0.01543 v 0.785443 0.785455 h -0.465972 -0.465974 z"
       id="path942-3-6"
       inkscape:connector-curvature="0"
       inkscape:export-filename="/home/cwc/http/greenchoices/img/1tree.png"
       inkscape:export-xdpi="90"
       inkscape:export-ydpi="90" />
    <path
       style="display:inline;fill:#008000;fill-opacity:1;stroke-width:0.0582467"
       d="m -50.560878,46.16729 v -0.785475 l -1.745042,-0.01543 -1.745038,-0.01543 0.838747,-1.368804 0.838744,-1.368796 -0.578992,-0.01657 c -0.318452,-0.0091 -0.579002,-0.02737 -0.579002,-0.04058 0,-0.01321 0.406958,-0.687203 0.904343,-1.49781 l 0.904343,-1.473846 -0.442382,-0.01709 c -0.243313,-0.0094 -0.43402,-0.0383 -0.423806,-0.06427 0.0335,-0.08513 2.456384,-4.023976 2.466498,-4.009764 0.07603,0.106781 2.415674,4.013733 2.415674,4.033914 0,0.01543 -0.186282,0.02807 -0.413957,0.02807 -0.307462,0 -0.406659,0.01873 -0.385589,0.07282 0.01561,0.04008 0.411565,0.710121 0.879931,1.489066 0.46836,0.778939 0.851563,1.427664 0.851563,1.441604 0,0.01397 -0.251804,0.02533 -0.559579,0.02533 -0.434297,0 -0.553086,0.01689 -0.530607,0.07548 0.01593,0.04153 0.385219,0.66403 0.820632,1.383359 l 0.79167,1.307878 -1.688107,0.01543 -1.688098,0.01543 v 0.785444 0.785455 h -0.465972 -0.465974 z"
       id="path942-3-3-7"
       inkscape:connector-curvature="0"
       inkscape:export-filename="/home/cwc/http/greenchoices/img/3tree.png"
       inkscape:export-xdpi="90"
       inkscape:export-ydpi="90" />
    <path
       style="display:inline;fill:#008000;fill-opacity:1;stroke-width:0.0582467"
       d="m -42.991111,32.536552 v -0.785474 l -1.745042,-0.01543 -1.745038,-0.01543 0.838747,-1.368805 0.838744,-1.368795 -0.578992,-0.01657 c -0.318452,-0.0091 -0.579002,-0.02737 -0.579002,-0.04058 0,-0.01321 0.406958,-0.687203 0.904343,-1.49781 l 0.904343,-1.473846 -0.442382,-0.01709 c -0.243313,-0.0094 -0.43402,-0.0383 -0.423806,-0.06427 0.0335,-0.08513 2.456384,-4.023977 2.466498,-4.009765 0.07603,0.106781 2.415674,4.013734 2.415674,4.033914 0,0.01543 -0.186282,0.02807 -0.413957,0.02807 -0.307462,0 -0.406659,0.01873 -0.385589,0.07282 0.01561,0.04008 0.411565,0.710121 0.879931,1.489066 0.46836,0.778939 0.851563,1.427664 0.851563,1.441604 0,0.01397 -0.251804,0.02533 -0.559579,0.02533 -0.434297,0 -0.553086,0.01689 -0.530607,0.07548 0.01593,0.04153 0.385219,0.66403 0.820632,1.38336 l 0.79167,1.307878 -1.688107,0.01543 -1.688098,0.01543 v 0.785442 0.785455 h -0.465972 -0.465974 z"
       id="path942-3-5"
       inkscape:connector-curvature="0"
       inkscape:export-filename="/home/cwc/http/greenchoices/img/2tree.png"
       inkscape:export-xdpi="90"
       inkscape:export-ydpi="90" />
    <path
       style="display:inline;fill:#008000;fill-opacity:1;stroke-width:0.0582467"
       d="m -34.964416,46.167271 v -0.785474 l -1.745042,-0.01543 -1.745038,-0.01543 0.838747,-1.368805 0.838744,-1.368796 -0.578992,-0.01657 c -0.318452,-0.0091 -0.579002,-0.02737 -0.579002,-0.04058 0,-0.01321 0.406958,-0.687204 0.904343,-1.49781 l 0.904343,-1.473846 -0.442382,-0.01709 c -0.243313,-0.0094 -0.43402,-0.0383 -0.423806,-0.06427 0.0335,-0.08513 2.456384,-4.023977 2.466498,-4.009765 0.07603,0.106781 2.415674,4.013734 2.415674,4.033914 0,0.01543 -0.186282,0.02807 -0.413957,0.02807 -0.307462,0 -0.406659,0.01873 -0.385589,0.07282 0.01561,0.04008 0.411565,0.710121 0.879931,1.489066 0.46836,0.778939 0.851563,1.427664 0.851563,1.441604 0,0.01397 -0.251804,0.02533 -0.559579,0.02533 -0.434297,0 -0.553086,0.01689 -0.530607,0.07548 0.01593,0.04153 0.385219,0.66403 0.820632,1.383359 l 0.79167,1.307878 -1.688107,0.01543 -1.688098,0.01543 v 0.785444 0.785455 h -0.465972 -0.465974 z"
       id="path942-3-3-3"
       inkscape:connector-curvature="0"
       inkscape:export-filename="/home/cwc/http/greenchoices/img/3tree.png"
       inkscape:export-xdpi="90"
       inkscape:export-ydpi="90" />
    <path
       style="display:inline;fill:#008000;fill-opacity:1;stroke-width:0.0582467"
       d="M -45.844855,62.069845 V 61.28437 l -1.745042,-0.01543 -1.745038,-0.01543 0.838747,-1.368804 0.838744,-1.368796 -0.578992,-0.01657 c -0.318452,-0.0091 -0.579002,-0.02737 -0.579002,-0.04058 0,-0.01321 0.406958,-0.687203 0.904343,-1.49781 l 0.904343,-1.473846 -0.442382,-0.01709 c -0.243313,-0.0094 -0.43402,-0.0383 -0.423806,-0.06427 0.0335,-0.08513 2.456384,-4.023976 2.466498,-4.009764 0.07603,0.106781 2.415674,4.013733 2.415674,4.033914 0,0.01543 -0.186282,0.02807 -0.413957,0.02807 -0.307462,0 -0.406659,0.01873 -0.385589,0.07282 0.01561,0.04008 0.411565,0.710121 0.879931,1.489066 0.46836,0.778939 0.851563,1.427664 0.851563,1.441604 0,0.01397 -0.251804,0.02533 -0.559579,0.02533 -0.434297,0 -0.553086,0.01689 -0.530607,0.07548 0.01593,0.04153 0.385219,0.66403 0.820632,1.383359 l 0.79167,1.307878 -1.688107,0.01543 -1.688098,0.01543 v 0.785444 0.785455 h -0.465972 -0.465974 z"
       id="path942-3-3-5"
       inkscape:connector-curvature="0"
       inkscape:export-filename="/home/cwc/http/greenchoices/img/4tree.png"
       inkscape:export-xdpi="90"
       inkscape:export-ydpi="90" />
    <path
       style="display:inline;fill:#008000;fill-opacity:1;stroke-width:0.0582467"
       d="m -53.643086,62.069854 v -0.785475 l -1.745042,-0.01543 -1.745038,-0.01543 0.838747,-1.368804 0.838744,-1.368796 -0.578992,-0.01657 c -0.318452,-0.0091 -0.579002,-0.02737 -0.579002,-0.04058 0,-0.01321 0.406958,-0.687203 0.904343,-1.49781 l 0.904343,-1.473846 -0.442382,-0.01709 c -0.243313,-0.0094 -0.43402,-0.0383 -0.423806,-0.06427 0.0335,-0.08513 2.456384,-4.023976 2.466498,-4.009764 0.07603,0.106781 2.415674,4.013733 2.415674,4.033914 0,0.01543 -0.186282,0.02807 -0.413957,0.02807 -0.307462,0 -0.406659,0.01873 -0.385589,0.07282 0.01561,0.04008 0.411565,0.710121 0.879931,1.489066 0.46836,0.778939 0.851563,1.427664 0.851563,1.441604 0,0.01397 -0.251804,0.02533 -0.559579,0.02533 -0.434297,0 -0.553086,0.01689 -0.530607,0.07548 0.01593,0.04153 0.385219,0.66403 0.820632,1.383359 l 0.79167,1.307878 -1.688107,0.01543 -1.688098,0.01543 v 0.785445 0.785455 h -0.465972 -0.465974 z"
       id="path942-3-3-7-6"
       inkscape:connector-curvature="0"
       inkscape:export-filename="/home/cwc/http/greenchoices/img/4tree.png"
       inkscape:export-xdpi="90"
       inkscape:export-ydpi="90" />
    <path
       style="display:inline;fill:#008000;fill-opacity:1;stroke-width:0.0582467"
       d="m -38.046624,62.069835 v -0.785474 l -1.745042,-0.01543 -1.745038,-0.01543 0.838747,-1.368805 0.838744,-1.368796 -0.578992,-0.01657 c -0.318452,-0.0091 -0.579002,-0.02737 -0.579002,-0.04058 0,-0.01321 0.406958,-0.687204 0.904343,-1.49781 l 0.904343,-1.473846 -0.442382,-0.01709 c -0.243313,-0.0094 -0.43402,-0.0383 -0.423806,-0.06427 0.0335,-0.08513 2.456384,-4.023977 2.466498,-4.009765 0.07603,0.106781 2.415674,4.013734 2.415674,4.033914 0,0.01543 -0.186282,0.02807 -0.413957,0.02807 -0.307462,0 -0.406659,0.01873 -0.385589,0.07282 0.01561,0.04008 0.411565,0.710121 0.879931,1.489066 0.46836,0.778939 0.851563,1.427664 0.851563,1.441604 0,0.01397 -0.251804,0.02533 -0.559579,0.02533 -0.434297,0 -0.553086,0.01689 -0.530607,0.07548 0.01593,0.04153 0.385219,0.66403 0.820632,1.383359 l 0.79167,1.307878 -1.688107,0.01543 -1.688098,0.01543 v 0.785444 0.785456 h -0.465972 -0.465974 z"
       id="path942-3-3-3-2"
       inkscape:connector-curvature="0"
       inkscape:export-filename="/home/cwc/http/greenchoices/img/4tree.png"
       inkscape:export-xdpi="90"
       inkscape:export-ydpi="90" />
    <path
       style="display:inline;fill:#008000;fill-opacity:1;stroke-width:0.0582467"
       d="m -44.66585,76.1015 v -0.785476 l -1.745042,-0.01543 -1.745038,-0.01543 0.838747,-1.368804 0.838744,-1.368796 -0.578992,-0.01657 c -0.318452,-0.0091 -0.579002,-0.02737 -0.579002,-0.04058 0,-0.01321 0.406958,-0.687203 0.904343,-1.49781 l 0.904343,-1.473846 -0.442382,-0.01709 c -0.243313,-0.0094 -0.43402,-0.0383 -0.423806,-0.06427 0.0335,-0.08513 2.456384,-4.023976 2.466498,-4.009764 0.07603,0.106781 2.415674,4.013733 2.415674,4.033914 0,0.01543 -0.186282,0.02807 -0.413957,0.02807 -0.307462,0 -0.406659,0.01873 -0.385589,0.07282 0.01561,0.04008 0.411565,0.710121 0.879931,1.489066 0.46836,0.778939 0.851563,1.427664 0.851563,1.441604 0,0.01397 -0.251804,0.02533 -0.559579,0.02533 -0.434297,0 -0.553086,0.01689 -0.530607,0.07548 0.01593,0.04153 0.385219,0.66403 0.820632,1.383359 l 0.79167,1.307878 -1.688107,0.01543 -1.688098,0.01543 v 0.785445 0.785455 h -0.465972 -0.465974 z"
       id="path942-3-3-5-1"
       inkscape:connector-curvature="0"
       inkscape:export-filename="/home/cwc/http/greenchoices/img/5tree.png"
       inkscape:export-xdpi="90"
       inkscape:export-ydpi="90" />
    <path
       style="display:inline;fill:#008000;fill-opacity:1;stroke-width:0.0582467"
       d="m -52.464081,76.101509 v -0.785476 l -1.745042,-0.01543 -1.745038,-0.01543 0.838747,-1.368804 0.838744,-1.368796 -0.578992,-0.01657 c -0.318452,-0.0091 -0.579002,-0.02737 -0.579002,-0.04058 0,-0.01321 0.406958,-0.687203 0.904343,-1.49781 l 0.904343,-1.473846 -0.442382,-0.01709 c -0.243313,-0.0094 -0.43402,-0.0383 -0.423806,-0.06427 0.0335,-0.08513 2.456384,-4.023976 2.466498,-4.009764 0.07603,0.106781 2.415674,4.013733 2.415674,4.033914 0,0.01543 -0.186282,0.02807 -0.413957,0.02807 -0.307462,0 -0.406659,0.01873 -0.385589,0.07282 0.01561,0.04008 0.411565,0.710121 0.879931,1.489066 0.46836,0.778939 0.851563,1.427664 0.851563,1.441604 0,0.01397 -0.251804,0.02533 -0.559579,0.02533 -0.434297,0 -0.553086,0.01689 -0.530607,0.07548 0.01593,0.04153 0.385219,0.66403 0.820632,1.383359 l 0.79167,1.307878 -1.688107,0.01543 -1.688098,0.01543 v 0.785446 0.785455 h -0.465972 -0.465974 z"
       id="path942-3-3-7-6-2"
       inkscape:connector-curvature="0"
       inkscape:export-filename="/home/cwc/http/greenchoices/img/5tree.png"
       inkscape:export-xdpi="90"
       inkscape:export-ydpi="90" />
    <path
       style="display:inline;fill:#008000;fill-opacity:1;stroke-width:0.0582467"
       d="m -36.867619,76.10149 v -0.785475 l -1.745042,-0.01543 -1.745038,-0.01543 0.838747,-1.368805 0.838744,-1.368796 -0.578992,-0.01657 c -0.318452,-0.0091 -0.579002,-0.02737 -0.579002,-0.04058 0,-0.01321 0.406958,-0.687204 0.904343,-1.49781 l 0.904343,-1.473846 -0.442382,-0.01709 c -0.243313,-0.0094 -0.43402,-0.0383 -0.423806,-0.06427 0.0335,-0.08513 2.456384,-4.023977 2.466498,-4.009765 0.07603,0.10678 2.415674,4.013733 2.415674,4.033913 0,0.01543 -0.186282,0.02807 -0.413957,0.02807 -0.307462,0 -0.406659,0.01873 -0.385589,0.07282 0.01561,0.04008 0.411565,0.710121 0.879931,1.489066 0.46836,0.778939 0.851563,1.427664 0.851563,1.441604 0,0.01397 -0.251804,0.02533 -0.559579,0.02533 -0.434297,0 -0.553086,0.01689 -0.530607,0.07548 0.01593,0.04153 0.385219,0.66403 0.820632,1.383359 l 0.79167,1.307878 -1.688107,0.01543 -1.688098,0.01543 v 0.785445 0.785456 h -0.465972 -0.465974 z"
       id="path942-3-3-3-2-7"
       inkscape:connector-curvature="0"
       inkscape:export-filename="/home/cwc/http/greenchoices/img/5tree.png"
       inkscape:export-xdpi="90"
       inkscape:export-ydpi="90" />
    <path
       style="display:inline;fill:#008000;fill-opacity:1;stroke-width:0.0582467"
       d="m -29.069388,76.101477 v -0.785473 l -1.745042,-0.01543 -1.745038,-0.01543 0.838747,-1.368805 0.838744,-1.368796 -0.578992,-0.01657 c -0.318452,-0.0091 -0.579002,-0.02737 -0.579002,-0.04058 0,-0.01321 0.406958,-0.687204 0.904343,-1.49781 l 0.904343,-1.473846 -0.442382,-0.01709 c -0.243313,-0.0094 -0.43402,-0.0383 -0.423806,-0.06427 0.0335,-0.08513 2.456384,-4.023977 2.466499,-4.009765 0.07603,0.106781 2.415673,4.013734 2.415673,4.033914 0,0.01543 -0.186283,0.02807 -0.413957,0.02807 -0.307461,0 -0.406659,0.01873 -0.385588,0.07282 0.01561,0.04008 0.411565,0.710121 0.87993,1.489066 0.468361,0.778939 0.851565,1.427664 0.851565,1.441604 0,0.01397 -0.251804,0.02533 -0.559581,0.02533 -0.434298,0 -0.553085,0.01689 -0.530606,0.07548 0.01593,0.04153 0.385217,0.66403 0.820632,1.383359 l 0.79167,1.307878 -1.688108,0.01543 -1.688097,0.01543 v 0.785444 0.785456 h -0.465974 -0.465973 z"
       id="path942-3-3-3-9-0"
       inkscape:connector-curvature="0"
       inkscape:export-filename="/home/cwc/http/greenchoices/img/5tree.png"
       inkscape:export-xdpi="90"
       inkscape:export-ydpi="90" />
    <path
       style="display:inline;fill:#008000;fill-opacity:1;stroke-width:0.0582467"
       d="M -30.248393,62.069823 V 61.28435 l -1.745042,-0.01543 -1.745038,-0.01543 0.838747,-1.368804 0.838744,-1.368796 -0.578992,-0.01657 c -0.318452,-0.0091 -0.579002,-0.02737 -0.579002,-0.04058 0,-0.01321 0.406958,-0.687205 0.904343,-1.497811 l 0.904343,-1.473846 -0.442382,-0.01709 c -0.243313,-0.0094 -0.43402,-0.0383 -0.423806,-0.06427 0.0335,-0.08513 2.456384,-4.023977 2.466498,-4.009765 0.07603,0.106781 2.415674,4.013734 2.415674,4.033914 0,0.01543 -0.186282,0.02807 -0.413957,0.02807 -0.307462,0 -0.406659,0.01873 -0.385589,0.07282 0.01561,0.04008 0.411565,0.710121 0.879931,1.489066 0.46836,0.778939 0.851563,1.427664 0.851563,1.441604 0,0.01397 -0.251804,0.02533 -0.559579,0.02533 -0.434297,0 -0.553086,0.01689 -0.530607,0.07548 0.01593,0.04153 0.385219,0.66403 0.820632,1.383359 l 0.79167,1.307878 -1.688107,0.01543 -1.688098,0.01543 v 0.785444 0.785456 h -0.465972 -0.465974 z"
       id="path942-3-3-3-9"
       inkscape:connector-curvature="0"
       inkscape:export-filename="/home/cwc/http/greenchoices/img/4tree.png"
       inkscape:export-xdpi="90"
       inkscape:export-ydpi="90" />
    <path
       style="display:inline;fill:#008000;fill-opacity:1;stroke-width:0.0582467"
       d="m -21.271156,76.101466 v -0.785473 l -1.745042,-0.01543 -1.745038,-0.01543 0.838747,-1.368804 0.838744,-1.368796 -0.578992,-0.01657 c -0.318452,-0.0091 -0.579002,-0.02737 -0.579002,-0.04058 0,-0.01321 0.406958,-0.687205 0.904343,-1.497811 l 0.904343,-1.473846 -0.442382,-0.01709 c -0.243313,-0.0094 -0.43402,-0.0383 -0.423806,-0.06427 0.0335,-0.08513 2.456384,-4.023977 2.466498,-4.009765 0.07603,0.106781 2.415674,4.013734 2.415674,4.033914 0,0.01543 -0.186282,0.02807 -0.413957,0.02807 -0.307462,0 -0.406659,0.01873 -0.385589,0.07282 0.01561,0.04008 0.411565,0.710121 0.879931,1.489066 0.46836,0.778939 0.851563,1.427664 0.851563,1.441604 0,0.01397 -0.251804,0.02533 -0.559579,0.02533 -0.434297,0 -0.553086,0.01689 -0.530607,0.07548 0.01593,0.04153 0.385219,0.66403 0.820632,1.383359 l 0.79167,1.307878 -1.688107,0.01543 -1.688098,0.01543 v 0.785444 0.785456 h -0.465972 -0.465974 z"
       id="path942-3-3-3-9-9"
       inkscape:connector-curvature="0"
       inkscape:export-filename="/home/cwc/http/greenchoices/img/5tree.png"
       inkscape:export-xdpi="90"
       inkscape:export-ydpi="90" />
  </g>
</svg>
